<svg viewBox="0 0 512 512" fill="#ffffff" id="_55_Portfolio" data-name="55 Portfolio"
    xmlns="http://www.w3.org/2000/svg">
    <g id="SVGRepo_bgCarrier" stroke-width="0"></g>
    <g id="SVGRepo_tracerCarrier" stroke-linecap="round" stroke-linejoin="round"></g>
    <g id="SVGRepo_iconCarrier">
        <path id="Path_72" data-name="Path 72"
            d="M480,96H352V32A31.991,31.991,0,0,0,320,0H192a31.991,31.991,0,0,0-32,32V96H32A31.991,31.991,0,0,0,0,128V480a31.991,31.991,0,0,0,32,32H480a31.991,31.991,0,0,0,32-32V128A31.991,31.991,0,0,0,480,96ZM224,64h64V96H224ZM448,448H64V320H192v32H320V320H448Zm0-160H320V256H192v32H64V160H448Z"
            fill-rule="evenodd"></path>
    </g>
</svg>